PathFileType	4	(X/Y/Z)	pose_F01_0-83.trc
DataRate	CameraRate	NumFrames	NumMarkers	Units	OrigDataRate	OrigDataStartFrame	OrigNumFrames
30	30	11	21	m	30	47	83
Frame#	Time	CHip			RHip			RKnee			RAnkle			RBigToe			RSmallToe			RHeel			LHip			LKnee			LAnkle			LBigToe			LSmallToe			LHeel			Neck			Nose			RShoulder			RElbow			RWrist			LShoulder			LElbow			LWrist			
		X1	Y1	Z1	X2	Y2	Z2	X3	Y3	Z3	X4	Y4	Z4	X5	Y5	Z5	X6	Y6	Z6	X7	Y7	Z7	X8	Y8	Z8	X9	Y9	Z9	X10	Y10	Z10	X11	Y11	Z11	X12	Y12	Z12	X13	Y13	Z13	X14	Y14	Z14	X15	Y15	Z15	X16	Y16	Z16	X17	Y17	Z17	X18	Y18	Z18	X19	Y19	Z19	X20	Y20	Z20	X21	Y21	Z21	
47	1.5666666666666667	-0.21377186478729418	1.838809412998952	-0.6036408282961409	-0.23242828200016663	1.8369830998669086	-0.5448681126764457	-0.23302329711664382	1.7042327321992379	-0.5398289862865917													-0.19463392081722738	1.8414232480639	-0.6659368146521091	-0.19407177480022442	1.7077006400697874	-0.6374155216524654	-0.18806224432036914	1.5865792256405813	-0.6319959747935273	-0.19498779597655924	1.5523167394989368	-0.6932888026951852	-0.18350889939100953	1.5619584154001307	-0.7053537385450858	-0.18691552367814132	1.5729958279566472	-0.6108936605836307	-0.20754317910456196	1.9881199024009533	-0.6215096883295254	-0.21291531164268743	2.0626627915888354	-0.6754532425593543	-0.23283634856888494	1.9898800357446311	-0.5401185494681748	-0.257243109793828	1.9123984150108548	-0.5226454196084818	-1.4762315263107395	1.8664354601697954	0.6859803045423966	-0.1746800095171358	1.989212045661433	-0.704606560640691	-0.17043105929494534	1.9119213845948069	-0.7133930373943584	-0.17182466932977652	1.8340999175700465	-0.7340898450491847
48	1.6	-0.21947021151508467	1.8334644669286935	-0.5928740531488071	-0.2400775752983905	1.832338559555537	-0.5318897820940712	-0.23302329711664382	1.7042327321992379	-0.5398289862865917													-0.202082595689956	1.8355214402735507	-0.6493697227028571	-0.20098595857071616	1.704067628941104	-0.62970555133256	-0.18618905406955288	1.5817043888134155	-0.6335648077028833	-0.19310240058403935	1.5512957068869964	-0.694885696181765	-0.18162345087172466	1.5609037799479033	-0.7069291482629685	-0.18675483571961085	1.569645815706185	-0.6146298399247082	-0.2129702386831944	1.986538738042185	-0.6113067412744125	-0.21669890219280102	2.0627167710437404	-0.6594052280317017	-0.2392096782150843	1.9872286357340516	-0.5249656257710877	-0.2621583051442507	1.9101440850440654	-0.512089970990667	-1.4726132297489918	1.8640035340092354	0.6759459119643482	-0.1830867358241816	1.9878415294700738	-0.6839683026803107	-0.17408858874205374	1.910538822960152	-0.7056106668006381	-0.17774945120323743	1.8297956583224932	-0.7117621426723741
49	1.6333333333333333	-0.22468486543589705	1.8347708332010007	-0.5830625459411586	-0.24312232617610255	1.8339313101971197	-0.5241792951212262	-0.23302329711664382	1.7042327321992379	-0.5398289862865917													-0.20322990407966532	1.8366489170779232	-0.6439364793490374	-0.2024242078778285	1.7045576071008641	-0.6242022525475436	-0.1887018958656072	1.5843132707484828	-0.6308286579414849	-0.1952988204603957	1.5512862373529661	-0.6927220770924928	-0.18357904306091452	1.5622552932296052	-0.7053213934019765	-0.18556320228865364	1.571257483367589	-0.6118964359155187	-0.21782124436756262	1.9866233950170968	-0.5900250430198176	-0.21944115447076393	2.0586513111605496	-0.6486776167681937	-0.24336685326234225	1.9865111478998325	-0.5119107800692245	-0.26618938395364555	1.9103989523377225	-0.49041922386795156	-1.5185101604384177	1.866104071403837	0.7550256211887102	-0.1865936709811029	1.9879558169211802	-0.6759465373566252	-0.1804863741958057	1.9111238947357314	-0.6866460226386818	-0.1836771179895702	1.8302926621046154	-0.7013191998689953
50	1.6666666666666667	-0.23009311000933155	1.8359339980562492	-0.5730981413880161	-0.24724760596194875	1.8334871928359584	-0.5107062277250936	-0.23302329711664382	1.7042327321992379	-0.5398289862865917													-0.20863667031117447	1.8366228083323721	-0.6342219477300546	-0.2068898107314556	1.7028125773993594	-0.619332143251865	-0.18857394750053272	1.583171559322544	-0.6309595266057814	-0.19328867183177736	1.552744475655709	-0.6946886565646864	-0.18168084102737234	1.5612795006154783	-0.7069615859778082	-0.18785866889546224	1.5696209553582907	-0.6090598050808587	-0.22025413102445568	1.986007528570565	-0.579024065047407	-0.22587141411317918	2.0561560067994566	-0.6413377964587221	-0.24840193777850206	1.9839398709419773	-0.501685192398285	-0.2685346512688015	1.9080875662382077	-0.479616019881548	-1.526143318071673	1.8661261090749055	0.7691713055644431	-0.19236101710484793	1.9869841615101427	-0.6659210651028263	-0.18537147706908058	1.9068002581958832	-0.6735965761589522	-0.18753051561856887	1.8208707522632543	-0.6928466094511997
51	1.7	-0.23455865460198558	1.83113906057136	-0.5677886411010165	-0.2516086597392412	1.8300519383822527	-0.49717394671777454	-0.23302329711664382	1.7042327321992379	-0.5398289862865917													-0.21756294500890372	1.833875777607174	-0.6245663750754795	-0.20897044371129278	1.7049814212115306	-0.617190737416265	-0.18882421833724475	1.5844908345356064	-0.6306673481857548	-0.1930324357688628	1.551238731321145	-0.6950535447335978	-0.1816364414486863	1.5609755191979542	-0.7070428646148579	-0.1878793573653714	1.569670384872051	-0.6090726900638913	-0.2255189348544826	1.9832406837474177	-0.5689604290903495	-0.23136058565896778	2.053793493314512	-0.6313283986057584	-0.25132606326775475	1.984665355150432	-0.4854318482863046	-0.2742176383073847	1.9044883005194526	-0.4724237799364429	-1.5443624554514246	1.8641362199633782	0.7999787073918035	-0.19791592948983056	1.9862704149152854	-0.6557138469012794	-0.18878287546942443	1.9025117804840745	-0.6658259491375006	-0.1934727341901456	1.8226967523047697	-0.6862968220830328
52	1.7333333333333334	-0.23847267461728816	1.8336540145749738	-0.555071174943876	-0.25217170422141844	1.8295899025411868	-0.4917971186731757	-0.23302329711664382	1.7042327321992379	-0.5398289862865917													-0.21860998033478318	1.835015948683412	-0.6191640773975826	-0.21076180400162434	1.7044697587932525	-0.6153101982202167	-0.18980601328130906	1.5854669617212578	-0.6260776512993892	-0.19098090431028936	1.5519839923639434	-0.6971495859191658	-0.18169183857339466	1.5614287516117136	-0.7069668518449529	-0.18854524399397807	1.5695177090966808	-0.6040458893847361	-0.23076249660892448	1.9830609675251085	-0.5590145058631648	-0.23569504206130268	2.050160859686768	-0.6265767201541458	-0.2533369147057601	1.985457733015023	-0.4749508949225723	-0.27828075129618585	1.906329343887124	-0.46821626967000984	-0.26576212592119863	1.950197159738375	-0.5571647030286665	-0.1988089585471123	1.984310279603473	-0.6385781144572026	-0.1943301834410806	1.905709025502915	-0.6556405736141883	-0.1968419210826061	1.8271600231297622	-0.6791728402283369
53	1.7666666666666666	-0.2400142966525449	1.831555035638661	-0.5491739213175993	-0.2545531019522007	1.8268161515862316	-0.48908693399052655	-0.23302329711664382	1.7042327321992379	-0.5398289862865917													-0.2209131284209445	1.8338794206662026	-0.6166716730596317	-0.21345245444730312	1.702958736509348	-0.6040823294308666	-0.19227929430740007	1.5814942164979797	-0.6228753693701536	-0.19309771809045082	1.5516230540739864	-0.6949367858714017	-0.18278347201674808	1.562700876467789	-0.7022301861994579	-0.1903143209809904	1.5662947661133035	-0.5973999663648994	-0.23384182588572275	1.983518048207465	-0.5513626232734721	-0.2380743806728207	2.0497902046916985	-0.6161009896458165	-0.2563301686691655	1.9820288184248487	-0.46699242467388996	-0.28009715676885394	1.9028815425305388	-0.46548780253688615	-1.5544702774848544	1.8658018788846467	0.817911604538985	-0.20139078310367406	1.9833635804539582	-0.6278887133750384	-0.19789011931436212	1.9042376913588852	-0.6477187729176674	-0.19924142639904044	1.8226660390774014	-0.6761438496370745
54	1.8	-0.24228225549613042	1.8323042347826626	-0.5469603407218446	-0.25968795986701965	1.8273900154140492	-0.4795380797117416	-0.23302329711664382	1.7042327321992379	-0.5398289862865917													-0.2230852084826363	1.8326301127691274	-0.6144116158436804	-0.21887340391518964	1.7048374556957278	-0.6026363775084568	-0.1944238220200948	1.581212587824844	-0.6205468305489079	-0.19332940663120565	1.552902592719264	-0.694659731104583	-0.18499609972192743	1.5625555196580687	-0.6999906178200987	-0.19254168885466977	1.5663644708808597	-0.5951159261782443	-0.23588512215227184	1.984045291409224	-0.5489556520706812	-0.24048581643357664	2.0482715004483105	-0.605546524654413	-0.2583973266462931	1.9834233739513147	-0.4651251823762031	-0.2811066168058925	1.9037150078570269	-0.4601222183666522	-0.2666530830776974	1.953281243970604	-0.5516618089394053	-0.2077299995034485	1.9841209197324718	-0.6214084667644822	-0.19994465292088096	1.9090726057363157	-0.6453176529499437	-0.2034091106984517	1.8248244161484424	-0.6716882008631002
55	1.8333333333333333	-0.24352831721657378	1.8334193698572636	-0.5416010461835857	-0.261831149216459	1.8290767348773238	-0.47741167176032157	-0.23302329711664382	1.7042327321992379	-0.5398289862865917													-0.22962589775284326	1.8344389035031325	-0.6078462178851239	-0.21923983067775119	1.7035199394722125	-0.6021596909408793	-0.19360471932486217	1.5813145619289808	-0.6172792556331856	-0.1923870315719943	1.5529901089728928	-0.6915497802112874	-0.18286371926196246	1.5628724492904777	-0.7020278309896687	-0.19486309989459644	1.567148744507481	-0.5927965027654656	-0.23517614601692158	1.9845783334675697	-0.5375876946434646	-0.24272961963138065	2.049163956611815	-0.5949394299740338	-0.26321932512089213	1.9814693965915828	-0.4551175546424852	-0.28515774907743197	1.9046211665550896	-0.45591157539864285	-1.561850735345385	1.8660445093980267	0.8251365728732041	-0.20981532173035186	1.9842021730314614	-0.6189770919252774	-0.1985720016777113	1.9142826664535053	-0.6303675547671507	-0.206131665846026	1.8372543242628117	-0.6695824589188727
56	1.8666666666666667	-0.24428374559472388	1.8329346952970198	-0.5361324050595294	-0.26350537092870696	1.829140165011963	-0.47512441284632834	-0.23302329711664382	1.7042327321992379	-0.5398289862865917													-0.22970263939807212	1.835468504130506	-0.5991612366309828	-0.22113223561791698	1.7049319175058353	-0.6002430069075436	-0.1957169696491364	1.5809939450865815	-0.6150701209711549	-0.19241887280269077	1.5527560052117015	-0.6915075346584213	-0.1850374029778838	1.5624964420409226	-0.6998396274841561	-0.19711097684941303	1.5675188591527853	-0.5905654066622826	-0.2382916200306052	1.9838773219423105	-0.5299700848123355	-0.24389874467739542	2.0503393624046784	-0.590173865133464	-0.26711531853200055	1.9830008974443747	-0.45105435901350643	-0.28926665425087755	1.9058116172215802	-0.45201262461333674	-0.27523765352048035	1.9518290503071438	-0.5433053769499804	-0.2109846944457032	1.9854706522889587	-0.6137055205636618	-0.2025132343831341	1.9115193217149642	-0.6344646731508196	-0.20751418630460627	1.8328842075724872	-0.6641039448463991
57	1.9	-0.2435054517754626	1.8306983093012217	-0.5327198365883731	-0.2638266228213315	1.8285890246159604	-0.474939745013071	-0.23302329711664382	1.7042327321992379	-0.5398289862865917													-0.22805261395252538	1.8347450994847527	-0.5925349476669969	-0.22117997106220405	1.7048650529686196	-0.6002295427676096	-0.19664009939830746	1.5820746106705954	-0.6099736158490382	-0.19260754635977276	1.5543968178022805	-0.6910430594167778	-0.1871145229470374	1.5651412521813608	-0.6977937322182816	-0.1991352919244646	1.5667656326117758	-0.5885567411180878	-0.24127070770182077	1.9867756772798768	-0.5312194059178286	-0.2460017913125954	2.0517432728888987	-0.5884239578016603	-0.2672299652529282	1.9870569691840267	-0.45185701482972385	-0.28850796387810856	1.9045415575872129	-0.4571741484256906	-1.5507264309265505	1.8641733926908632	0.8065743250437256	-0.21394923403510277	1.9854523288833674	-0.6144049704789946	-0.20437797132781915	1.9107482943016678	-0.6325251340695269	-0.20540061241245894	1.8334222605372146	-0.6498144706935485
